<svg width="81" height="37" viewBox="0 0 81 37" fill="none" xmlns="http://www.w3.org/2000/svg">
<path fill-rule="evenodd" clip-rule="evenodd" d="M65.2002 0.200461C74.2 0.150565 80.7996 7.15042 80.7998 18.3001C80.7998 29.5 74.2001 36.5002 65.2002 36.5003C60.1133 36.5003 55.8083 34.3126 53 30.427V36.0003H48.7998L29.5996 8.50027H29.2998V36.0003H24.9004V4.50027H15.5V36.0003H11.0996V4.50027H0V0.600852H29.0996L48.2998 28.2005H48.7002V0.600852H53V6.21902C55.8083 2.34785 60.1135 0.172513 65.2002 0.200461ZM65.2002 4.30007C58.7503 4.25007 53.8 9.20036 53.7998 18.3001C53.7998 27.4501 58.7502 32.3507 65.2002 32.4007C71.5501 32.3506 76.5 27.45 76.5 18.3001C76.4998 9.20046 71.55 4.25017 65.2002 4.30007Z" fill="black"/>
</svg>
